#!OML:ASF F:\VICON\USERDATA\INSTALL\rory3\rory3.ASF
:FULLY-SPECIFIED
:DEGREES
145
root 0.886967 17.9822 1.0369 -3.89058 0.840391 2.39549
lowerback 12.2157 -0.0791685 -2.29898
upperback 0.547543 -0.373952 0.769382
thorax -6.26277 -0.105467 2.17446
lowerneck -17.6906 -2.59837 -1.66587
upperneck 21.3094 -3.02256 -0.534966
head 9.69185 -1.60173 -0.315311
rclavicle 1.54058e-014 -1.19271e-015
rhumerus -31.4193 -21.8234 -76.2247
rradius 25.3743
rwrist 4.04854
rhand -19.4592 24.4443
rfingers 7.12502
rthumb 6.86186 -5.42446
lclavicle 1.54058e-014 -1.19271e-015
lhumerus -27.925 1.89013 79.7272
lradius 26.6581
lwrist 7.0441
lhand -27.7684 21.04
lfingers 7.12502
lthumb -1.16222 51.0166
rfemur -28.6506 -0.455177 20.2212
rtibia 57.3789
rfoot -13.9033 -8.01174
rtoes -3.22903
lfemur -2.78391 -0.750893 -27.4591
ltibia 26.3908
lfoot -16.245 -0.928366
ltoes -1.58202
146
root 0.884279 17.9823 1.19503 -3.69559 1.13883 2.46705
lowerback 12.204 -0.198416 -2.41799
upperback 0.476149 -0.545349 0.826589
thorax -6.32105 -0.183414 2.33241
lowerneck -17.5568 -2.54036 -1.76591
upperneck 21.1406 -2.91902 -0.520821
head 9.60912 -1.56033 -0.276366
rclavicle -6.38596e-015 3.97569e-016
rhumerus -31.9107 -21.8486 -76.0128
rradius 25.53
rwrist 3.93372
rhand -19.4663 25.027
rfingers 7.12502
rthumb 6.85502 -4.84207
lclavicle -6.38596e-015 3.97569e-016
lhumerus -27.6025 1.6128 79.7543
lradius 27.0741
lwrist 7.71188
lhand -27.89 22.1231
lfingers 7.12502
lthumb -1.27967 52.099
rfemur -29.2573 -0.544857 20.1383
rtibia 55.3137
rfoot -12.7486 -9.28787
rtoes -5.46793
lfemur -2.08901 -0.737626 -27.5185
ltibia 25.8058
lfoot -16.5427 -0.978592
ltoes -1.72051
147
root 0.88156 17.9807 1.36085 -3.56657 1.22361 2.64891
lowerback 12.1586 -0.302502 -2.69696
upperback 0.391633 -0.71983 0.861056
thorax -6.37158 -0.258235 2.55718
lowerneck -17.3885 -2.49175 -1.81786
upperneck 21.1258 -2.82841 -0.572577
head 9.57243 -1.52897 -0.271158
rclavicle -7.95139e-016 3.57812e-015
rhumerus -32.3527 -21.5487 -75.94
rradius 25.5195
rwrist 3.8622
rhand -19.4358 26.3519
rfingers 7.12502
rthumb 6.88451 -3.51614
lclavicle -7.95139e-016 3.57812e-015
lhumerus -27.3228 1.77939 79.6243
lradius 27.1555
lwrist 8.33693
lhand -27.6179 24.811
lfingers 7.12502
lthumb -1.0169 54.7884
rfemur -29.6578 -0.438716 19.9326
rtibia 53.1341
rfoot -11.7324 -10.3218
rtoes -5.77198
lfemur -1.32436 -0.648064 -27.6949
ltibia 25.2262
lfoot -16.8045 -1.01335
ltoes -2.79278
148
root 0.879215 17.9729 1.5199 -3.44244 1.16217 2.65684
lowerback 12.0723 -0.345283 -2.82228
upperback 0.339279 -0.786236 0.953011
thorax -6.37172 -0.284969 2.73597
lowerneck -17.2761 -2.47074 -1.90268
upperneck 21.2304 -2.77358 -0.593398
head 9.58939 -1.51337 -0.256532
rclavicle 2.31087e-014 -7.55382e-015
rhumerus -32.5958 -21.6058 -75.7889
rradius 25.31
rwrist 4.00318
rhand -19.3669 27.6656
rfingers 7.12502
rthumb 6.95095 -2.20028
lclavicle 2.31087e-014 -7.55382e-015
lhumerus -26.835 1.93952 79.4987
lradius 27.0291
lwrist 8.59671
lhand -27.2231 25.7761
lfingers 7.12502
lthumb -0.635601 55.7549
rfemur -29.978 -0.180957 19.9238
rtibia 50.8237
rfoot -10.8961 -11.3878
rtoes -6.70422
lfemur -0.593717 -0.657152 -27.7187
ltibia 24.5175
lfoot -16.8035 -0.92429
ltoes -1.58348
149
root 0.875847 17.983 1.68043 -3.25805 1.157 2.5095
lowerback 11.8909 -0.327886 -2.7017
upperback 0.341081 -0.737657 1.0152
thorax -6.27172 -0.265785 2.7219
lowerneck -17.4329 -2.52867 -1.89242
upperneck 21.4678 -2.84709 -0.620153
head 9.70207 -1.54994 -0.281808
rclavicle 2.65874e-015 0
rhumerus -32.7846 -22.1557 -75.5689
rradius 25.0757
rwrist 4.18982
rhand -19.7062 28.3662
rfingers 7.12502
rthumb 6.62343 -1.51017
lclavicle 2.65874e-015 0
lhumerus -26.2981 1.65613 79.4356
lradius 27.3204
lwrist 8.82758
lhand -27.5661 24.5335
lfingers 7.12502
lthumb -0.966819 54.511
rfemur -30.3282 0.102956 20.0676
rtibia 48.3527
rfoot -9.55572 -12.7058
rtoes -4.914
lfemur 0.0973644 -0.789071 -27.5644
ltibia 23.7334
lfoot -16.685 -0.867567
ltoes -0.204817
150
root 0.875067 17.9955 1.84955 -3.03339 1.34846 2.5048
lowerback 11.5855 -0.394658 -2.65023
upperback 0.403315 -0.811695 1.00844
thorax -6.03003 -0.308945 2.69168
lowerneck -17.5943 -2.55654 -1.79035
upperneck 21.4868 -2.90097 -0.660647
head 9.73651 -1.5709 -0.322509
rclavicle 1.44367e-014 -7.55382e-015
rhumerus -32.9727 -22.7873 -75.3149
rradius 24.7213
rwrist 4.61998
rhand -19.5757 28.8035
rfingers 7.12502
rthumb 6.74945 -1.06888
lclavicle 1.44367e-014 -7.55382e-015
lhumerus -25.6438 1.69552 79.2845
lradius 27.5543
lwrist 8.81593
lhand -27.3067 23.6586
lfingers 7.12502
lthumb -0.716354 53.6371
rfemur -30.6091 0.298137 19.9748
rtibia 45.8003
rfoot -8.57464 -14.2092
rtoes -2.14693
lfemur 0.846648 -0.93064 -27.5586
ltibia 22.972
lfoot -16.8169 -0.854122
ltoes -0.894491
151
root 0.873854 17.9919 2.01921 -2.79418 1.50785 2.57768
lowerback 11.2061 -0.460102 -2.68469
upperback 0.507507 -0.894251 0.984158
thorax -5.70153 -0.35625 2.69035
lowerneck -17.6231 -2.51931 -1.70264
upperneck 21.2116 -2.87101 -0.666693
head 9.64275 -1.5499 -0.332657
rclavicle -3.47873e-015 5.1684e-015
rhumerus -33.1525 -23.4246 -75.0716
rradius 25.0185
rwrist 6.10271
rhand -18.8369 25.9112
rfingers 7.12502
rthumb 7.46261 -3.93717
lclavicle -3.47873e-015 5.1684e-015
lhumerus -24.7834 1.76683 79.122
lradius 27.4439
lwrist 9.06113
lhand -27.1649 23.7014
lfingers 7.12502
lthumb -0.579375 53.6804
rfemur -30.7186 0.582368 19.7623
rtibia 43.203
rfoot -7.87236 -15.5642
rtoes -1.28762
lfemur 1.60647 -0.943137 -27.6148
ltibia 22.1572
lfoot -16.8999 -1.0536
ltoes 1.17465
152
root 0.866816 17.9792 2.17995 -2.65567 1.50903 2.70277
lowerback 11.115 -0.491343 -2.95903
upperback 0.470749 -0.963147 1.07529
thorax -5.6789 -0.381752 2.95103
lowerneck -17.6332 -2.44649 -1.93957
upperneck 21.3407 -2.73408 -0.535506
head 9.69577 -1.49073 -0.23093
rclavicle 5.96354e-015 -5.56597e-015
rhumerus -33.4653 -23.6323 -74.7409
rradius 24.6653
rwrist 5.77041
rhand -18.7105 24.8884
rfingers 7.12502
rthumb 7.5846 -4.95557
lclavicle 5.96354e-015 -5.56597e-015
lhumerus -24.2333 2.10765 79.0341
lradius 27.4261
lwrist 9.12511
lhand -27.8161 22.8954
lfingers 7.12502
lthumb -1.20831 52.8718
rfemur -30.7477 0.966509 19.5305
rtibia 40.6459
rfoot -7.04539 -16.6384
rtoes -0.845342
lfemur 2.47764 -0.756777 -27.6898
ltibia 21.2721
lfoot -16.9291 -1.26503
ltoes 7.54643
153
root 0.859822 17.9712 2.34923 -2.5145 1.44571 2.86755
lowerback 10.9856 -0.497282 -3.22522
upperback 0.416939 -0.99949 1.10735
thorax -5.65568 -0.392002 3.13922
lowerneck -17.8225 -2.37348 -2.09782
upperneck 21.7748 -2.59802 -0.472279
head 9.88772 -1.43431 -0.170559
rclavicle -8.12532e-015 -1.35174e-014
rhumerus -33.8098 -23.7871 -74.527
rradius 24.3044
rwrist 5.45981
rhand -19.1912 24.1208
rfingers 7.12502
rthumb 7.12062 -5.73937
lclavicle -8.12532e-015 -1.35174e-014
lhumerus -23.7256 2.43338 78.9027
lradius 27.4017
lwrist 8.79026
lhand -29.3872 20.5549
lfingers 7.12502
lthumb -2.72563 50.5173
rfemur -30.7924 1.34392 19.2362
rtibia 38.0753
rfoot -6.36877 -17.5059
rtoes 0.48832
lfemur 3.34946 -0.499541 -27.8044
ltibia 20.5025
lfoot -17.1004 -1.51819
ltoes 1.38035
154
root 0.858399 17.963 2.5241 -2.50575 1.43612 3.03366
lowerback 10.9917 -0.521522 -3.31791
upperback 0.400127 -1.04869 1.02375
thorax -5.67299 -0.414221 3.11157
lowerneck -17.7866 -2.38146 -2.01203
upperneck 21.8643 -2.62714 -0.505482
head 9.91112 -1.44493 -0.200693
rclavicle 1.29955e-014 3.18055e-015
rhumerus -34.2468 -24.0183 -74.4234
rradius 24.285
rwrist 5.47606
rhand -19.3858 24.0244
rfingers 7.12502
rthumb 6.9327 -5.84212
lclavicle 1.29955e-014 3.18055e-015
lhumerus -23.285 2.36441 78.7014
lradius 27.4632
lwrist 8.79222
lhand -30.1321 19.4605
lfingers 7.12502
lthumb -3.44502 49.4125
rfemur -30.6403 1.66379 18.8919
rtibia 35.5018
rfoot -6.02509 -18.0901
rtoes 2.18639
lfemur 4.40691 -0.354963 -27.9763
ltibia 19.7691
lfoot -17.1959 -1.46122
ltoes 0.872055
155
root 0.855662 17.9552 2.69398 -2.35976 1.53962 2.99125
lowerback 10.9468 -0.585521 -3.20589
upperback 0.288002 -1.1209 1.00185
thorax -5.76303 -0.449494 3.03694
lowerneck -17.4238 -2.4182 -1.8451
upperneck 21.6723 -2.7025 -0.639116
head 9.7708 -1.48185 -0.278654
rclavicle 6.21202e-016 6.75868e-015
rhumerus -34.7325 -24.3446 -74.1656
rradius 24.0369
rwrist 5.57767
rhand -19.4177 24.0583
rfingers 7.12502
rthumb 6.90191 -5.80921
lclavicle 6.21202e-016 6.75868e-015
lhumerus -23.0948 2.30905 78.541
lradius 28.0147
lwrist 8.6899
lhand -30.1989 23.535
lfingers 7.12502
lthumb -3.50957 53.4858
rfemur -30.5821 2.20039 18.6764
rtibia 32.8586
rfoot -5.46665 -18.8493
rtoes 1.77958
lfemur 5.25234 -0.392871 -27.9189
ltibia 19.0286
lfoot -17.1779 -1.37871
ltoes 0.615699
156
root 0.8476 17.9468 2.86018 -2.12459 1.66466 3.02374
lowerback 10.8289 -0.655173 -3.22724
upperback 0.248816 -1.21453 0.975171
thorax -5.73123 -0.495487 3.03313
lowerneck -17.6228 -2.42263 -1.74835
upperneck 21.7208 -2.72839 -0.652289
head 9.82331 -1.48713 -0.305963
rclavicle 5.44173e-015 -5.96354e-015
rhumerus -34.9722 -24.9089 -73.8775
rradius 23.6088
rwrist 6.13146
rhand -19.3895 24.2873
rfingers 7.12502
rthumb 6.92919 -5.57928
lclavicle 5.44173e-015 -5.96354e-015
lhumerus -22.6286 2.17541 78.3787
lradius 28.1137
lwrist 9.06882
lhand -30.5579 22.1436
lfingers 7.12502
lthumb -3.85618 52.0884
rfemur -30.5757 2.68497 18.3923
rtibia 30.2226
rfoot -5.25206 -19.4474
rtoes 0.666604
lfemur 5.97236 -0.433731 -27.8994
ltibia 18.2783
lfoot -17.1978 -1.4669
ltoes 0.406434
157
root 0.840155 17.9389 3.0285 -2.03578 1.6164 2.91492
lowerback 10.7477 -0.691999 -3.15664
upperback 0.277385 -1.24849 1.03279
thorax -5.65306 -0.515469 3.05656
lowerneck -17.9145 -2.37852 -1.80543
upperneck 21.9373 -2.66579 -0.56407
head 9.95683 -1.45247 -0.263116
rclavicle 1.00386e-014 -6.36111e-015
rhumerus -35.2873 -24.7777 -73.856
rradius 23.636
rwrist 6.04462
rhand -19.6063 23.973
rfingers 7.12502
rthumb 6.7199 -5.90036
lclavicle 1.00386e-014 -6.36111e-015
lhumerus -22.2897 2.16968 78.2545
lradius 28.3229
lwrist 9.10862
lhand -30.5721 22.338
lfingers 7.12502
lthumb -3.86992 52.2826
rfemur -30.3747 3.1274 18.3264
rtibia 27.6884
rfoot -5.34498 -19.357
rtoes 1.32082
lfemur 6.8761 -0.372273 -27.7371
ltibia 17.5553
lfoot -17.226 -1.46119
ltoes -0.158236
158
root 0.83428 17.9294 3.20136 -1.91625 1.65271 2.96591
lowerback 10.6489 -0.779953 -3.19692
upperback 0.175722 -1.36681 1.06318
thorax -5.69424 -0.569922 3.12838
lowerneck -17.6722 -2.32031 -1.94012
upperneck 22.0351 -2.54987 -0.571829
head 9.94795 -1.41207 -0.225331
rclavicle -7.50412e-015 7.95139e-016
rhumerus -35.714 -24.5218 -73.7142
rradius 23.493
rwrist 5.78913
rhand -20.1779 22.9583
rfingers 7.12502
rthumb 6.16809 -6.93188
lclavicle -7.50412e-015 7.95139e-016
lhumerus -22.1181 2.5009 78.1061
lradius 28.33
lwrist 8.91266
lhand -30.3187 22.9183
lfingers 7.12502
lthumb -3.62523 52.8672
rfemur -30.177 3.64799 17.9888
rtibia 25.3414
rfoot -5.26167 -18.8277
rtoes 3.84481
lfemur 7.78268 -0.376029 -27.7542
ltibia 16.7344
lfoot -17.1798 -1.57933
ltoes -1.10536
159
root 0.825916 17.9144 3.37804 -1.75192 1.64676 3.16034
lowerback 10.5266 -0.832655 -3.4572
upperback 0.0345962 -1.46445 1.10153
thorax -5.75988 -0.606685 3.3299
lowerneck -17.2806 -2.31349 -2.1065
upperneck 21.897 -2.49278 -0.615336
head 9.82746 -1.40516 -0.199002
rclavicle -1.0312e-014 7.15625e-015
rhumerus -36.1977 -24.6456 -73.3192
rradius 23.2793
rwrist 6.18175
rhand -20.7496 21.8935
rfingers 7.12502
rthumb 5.61608 -8.01209
lclavicle -1.0312e-014 7.15625e-015
lhumerus -22.1071 2.93613 78.0151
lradius 28.5092
lwrist 8.71946
lhand -29.9345 22.305
lfingers 7.12502
lthumb -3.25418 52.2599
rfemur -30.0287 4.53412 17.3455
rtibia 23.1418
rfoot -6.42275 -18.6081
rtoes 3.89467
lfemur 8.67485 -0.307134 -27.9288
ltibia 15.8846
lfoot -17.0895 -1.61198
ltoes -1.41156
